<?xml version="1.0" standalone="no"?>
<!DOCTYPE svg PUBLIC "-//W3C//DTD SVG 20010904//EN"
 "http://www.w3.org/TR/2001/REC-SVG-20010904/DTD/svg10.dtd">
<svg version="1.0" xmlns="http://www.w3.org/2000/svg"
 width="980.000000pt" height="980.000000pt" viewBox="0 0 980.000000 980.000000"
 preserveAspectRatio="xMidYMid meet">
<metadata>
Created by potrace 1.14, written by Peter Selinger 2001-2017
</metadata>
<g transform="translate(0.000000,980.000000) scale(0.100000,-0.100000)"
fill="#000000" stroke="none">
<path d="M1285 9190 c-332 -8 -363 -13 -540 -100 -372 -182 -624 -603 -716
-1197 -15 -100 -22 -205 -26 -383 l-5 -245 40 -65 c43 -71 83 -104 145 -121
61 -16 358 -28 710 -29 l317 0 1 -2307 c0 -1270 4 -2546 9 -2838 7 -498 9
-535 29 -609 100 -362 409 -634 771 -677 121 -14 3826 -23 4580 -11 l605 10
88 26 c253 75 460 248 575 481 64 129 82 201 92 370 13 215 25 2195 14 2195
-5 0 -147 -138 -317 -308 l-307 -307 -1 -550 c-1 -727 -11 -1098 -31 -1146
-26 -61 -73 -105 -124 -118 -113 -29 -332 -32 -2154 -38 -1851 -5 -2860 4
-2995 27 -92 16 -112 28 -158 94 l-43 61 -13 3090 c-7 1700 -16 3196 -21 3325
-9 268 -18 316 -85 457 -73 150 -175 245 -294 276 -49 12 -7 14 429 20 734 10
4473 8 4645 -3 115 -7 167 -15 222 -34 158 -54 308 -152 401 -263 65 -78 148
-217 171 -286 41 -123 43 -166 48 -1029 2 -461 8 -838 11 -838 4 0 146 139
315 308 l308 308 -10 530 c-11 509 -18 635 -40 735 -39 174 -139 397 -242 544
-93 131 -262 296 -393 383 -172 115 -298 173 -519 236 l-126 36 -2538 -2
c-1396 -1 -2668 -5 -2828 -8z"/>
<path d="M8820 7040 c-109 -23 -226 -109 -432 -317 l-128 -128 546 -545 545
-545 152 155 c160 162 228 245 268 320 31 60 40 242 15 317 -26 78 -106 174
-341 409 -244 244 -305 295 -383 318 -69 20 -185 28 -242 16z"/>
<path d="M3577 6730 c-45 -14 -123 -79 -328 -275 l-192 -183 -62 52 c-34 29
-87 65 -119 81 -227 111 -484 -110 -415 -358 15 -57 114 -179 250 -312 177
-172 249 -215 360 -215 54 0 123 32 194 91 89 73 446 421 547 533 152 169 184
256 143 394 -22 73 -99 154 -171 181 -57 22 -154 27 -207 11z"/>
<path d="M4655 6431 c-151 -6 -163 -7 -207 -33 -90 -54 -158 -165 -158 -262 0
-109 65 -218 161 -271 l54 -29 293 -10 c182 -5 562 -6 1005 0 l713 10 57 27
c104 51 158 145 159 273 0 84 -21 141 -77 202 -70 78 -95 84 -374 93 -275 9
-1379 8 -1626 0z"/>
<path d="M7032 5363 c-554 -555 -1119 -1126 -1257 -1269 l-250 -259 -99 -210
c-140 -298 -350 -761 -445 -982 -91 -212 -95 -237 -55 -323 39 -83 71 -120
132 -147 100 -46 186 -25 552 137 266 117 512 231 755 349 l220 107 309 300
c171 164 744 732 1275 1261 l966 962 -530 531 c-291 292 -538 536 -548 541
-16 9 -161 -133 -1025 -998z m-1100 -1915 c61 -57 171 -168 246 -247 l135
-144 -55 -28 c-30 -15 -164 -78 -297 -140 l-243 -112 -90 90 -90 90 122 268
c132 293 148 325 156 325 3 0 56 -46 116 -102z"/>
<path d="M3594 5199 c-54 -13 -143 -85 -356 -290 l-178 -170 -70 54 c-107 84
-150 102 -245 102 -70 0 -87 -4 -134 -30 -143 -79 -201 -252 -131 -391 52
-104 255 -319 396 -420 70 -50 164 -79 223 -69 94 16 197 102 546 456 245 248
297 311 316 383 25 91 -6 215 -70 289 -64 72 -195 111 -297 86z"/>
<path d="M4815 4900 c-351 -8 -351 -8 -431 -92 -68 -71 -89 -120 -89 -213 0
-96 27 -157 98 -222 78 -72 86 -73 422 -83 165 -5 392 -9 505 -10 l205 0 308
308 c169 169 307 310 307 315 0 8 -875 7 -1325 -3z"/>
<path d="M3585 3663 c-44 -12 -151 -101 -334 -277 l-193 -186 -37 33 c-103 93
-177 128 -271 128 -93 0 -156 -28 -220 -98 -56 -62 -80 -124 -80 -213 0 -102
38 -159 239 -362 207 -208 238 -228 362 -228 127 0 148 12 336 188 190 179
537 542 561 587 24 46 28 161 8 229 -22 74 -86 145 -159 176 -51 23 -168 35
-212 23z"/>
</g>
</svg>
